<svg width="297" height="297" viewBox="0 0 297 297" fill="none" xmlns="http://www.w3.org/2000/svg">
<path d="M237.5 80.6682L219.875 62.9237L150 133.272L80.125 62.9237L62.5 80.6682L132.375 151.017L62.5 221.366L80.125 239.11L150 168.761L219.875 239.11L237.5 221.366L167.625 151.017L237.5 80.6682Z" fill="#206357"/>
<path d="M192 50.339C192 75.4109 171.821 95.678 147 95.678C122.179 95.678 102 75.4109 102 50.339C102 25.267 122.179 5 147 5C171.821 5 192 25.267 192 50.339Z" stroke="#692B2B" stroke-width="10"/>
<path d="M95 151.017C95 176.089 74.821 196.356 50 196.356C25.179 196.356 5 176.089 5 151.017C5 125.945 25.179 105.678 50 105.678C74.821 105.678 95 125.945 95 151.017Z" stroke="#692B2B" stroke-width="10"/>
<path d="M292 151.017C292 176.089 271.821 196.356 247 196.356C222.179 196.356 202 176.089 202 151.017C202 125.945 222.179 105.678 247 105.678C271.821 105.678 292 125.945 292 151.017Z" stroke="#692B2B" stroke-width="10"/>
<path d="M195 246.661C195 271.733 174.821 292 150 292C125.179 292 105 271.733 105 246.661C105 221.589 125.179 201.322 150 201.322C174.821 201.322 195 221.589 195 246.661Z" stroke="#692B2B" stroke-width="10"/>
</svg>


