<?xml version="1.0" standalone="no"?>
<!DOCTYPE svg PUBLIC "-//W3C//DTD SVG 20010904//EN"
 "http://www.w3.org/TR/2001/REC-SVG-20010904/DTD/svg10.dtd">
<svg version="1.0" xmlns="http://www.w3.org/2000/svg"
 width="700.000000pt" height="700.000000pt" viewBox="0 0 700.000000 700.000000"
 preserveAspectRatio="xMidYMid meet">
<metadata>
Created by potrace 1.11, written by Peter Selinger 2001-2013
</metadata>
<g transform="translate(0.000000,700.000000) scale(0.100000,-0.100000)"
fill="#000000" stroke="none">
<path d="M3338 6995 c-2 -1 -21 -5 -43 -8 -192 -24 -434 -131 -579 -256 -235
-203 -376 -461 -422 -771 -6 -47 -7 -264 0 -287 3 -10 8 -38 11 -63 39 -290
233 -593 495 -776 189 -132 428 -205 665 -204 112 1 131 2 220 19 410 79 752
375 892 774 103 295 84 624 -52 902 -74 151 -123 221 -228 327 -164 164 -369
276 -593 323 -67 15 -355 30 -366 20z m287 -246 c231 -38 451 -174 594 -367
343 -464 197 -1127 -310 -1406 -196 -108 -467 -140 -684 -83 -238 64 -460 236
-580 450 -38 70 -89 200 -99 257 -24 129 -28 279 -12 370 39 208 132 385 278
526 122 119 285 210 428 240 147 32 253 35 385 13z"/>
<path d="M4359 4689 l-824 -830 -820 826 c-451 454 -823 825 -827 825 -4 0
-98 -92 -210 -205 l-203 -205 330 -335 c181 -184 552 -557 823 -829 l493 -494
-247 -249 c-135 -136 -504 -508 -820 -825 -316 -317 -574 -581 -574 -585 0 -5
92 -100 205 -213 l204 -204 823 828 823 828 422 -424 c232 -233 602 -605 823
-828 l400 -405 205 205 c113 113 205 208 205 213 0 8 -41 50 -968 982 l-672
676 502 505 c839 843 1138 1145 1138 1153 0 4 -92 100 -204 213 l-204 206
-823 -829z"/>
<path d="M1045 4619 c-100 -14 -131 -20 -200 -40 -368 -109 -660 -395 -785
-768 -43 -127 -59 -243 -55 -401 3 -142 18 -230 60 -356 109 -324 375 -600
693 -720 206 -78 400 -97 632 -61 258 41 548 218 718 440 361 468 322 1135
-90 1557 -169 173 -375 285 -617 335 -84 18 -278 25 -356 14z m309 -244 c275
-53 520 -235 654 -486 197 -366 128 -825 -167 -1120 -183 -183 -390 -270 -651
-274 -115 -2 -149 1 -230 22 -298 76 -535 280 -654 563 -71 170 -88 384 -45
577 20 94 95 269 125 294 8 6 14 16 14 22 0 30 135 170 240 248 183 136 476
199 714 154z"/>
<path d="M5628 4609 c-132 -23 -205 -46 -333 -109 -395 -194 -648 -603 -648
-1050 -1 -139 5 -189 34 -303 57 -224 166 -408 344 -580 57 -55 206 -158 271
-187 24 -11 64 -29 89 -40 25 -11 87 -31 137 -45 259 -68 515 -49 759 55 354
150 611 466 695 851 19 87 26 296 14 389 -14 107 -20 131 -51 225 -186 555
-740 890 -1311 794z m329 -229 c32 -5 67 -12 78 -14 150 -30 327 -130 449
-252 290 -289 362 -735 177 -1102 -124 -246 -340 -421 -611 -493 -111 -30
-338 -33 -440 -5 -281 75 -482 230 -619 478 -36 66 -86 211 -98 283 -16 98 -8
314 14 400 93 357 383 631 739 699 89 17 238 20 311 6z"/>
<path d="M3547 2374 c-1 -1 -47 -4 -102 -7 -453 -26 -858 -338 -1020 -784 -13
-35 -21 -63 -19 -63 3 0 1 -8 -5 -17 -29 -56 -54 -353 -37 -442 3 -14 8 -47
11 -73 17 -140 116 -378 210 -503 146 -195 349 -344 569 -420 88 -30 90 -30
196 -49 73 -14 326 -15 379 -2 96 23 187 49 230 66 268 105 499 315 626 570
60 121 91 222 121 390 11 63 5 263 -10 348 -67 380 -311 704 -652 868 -92 44
-235 90 -309 100 -60 8 -185 20 -188 18z m209 -265 c304 -74 552 -296 662
-591 73 -195 77 -435 11 -632 -108 -320 -370 -555 -704 -631 -97 -23 -260 -22
-370 0 -192 39 -338 118 -481 260 -189 187 -284 424 -278 690 6 270 100 484
299 677 216 211 558 301 861 227z"/>
</g>
</svg>
