<svg width="345" height="394" viewBox="0 0 345 394" fill="none" xmlns="http://www.w3.org/2000/svg">
<path fill-rule="evenodd" clip-rule="evenodd" d="M-84.6828 148.392C-61.3226 122.802 -34.2207 102.357 -1.0484 90.049C37.2888 75.825 79.3222 55.9692 119.525 72.626C159.847 89.332 172.477 138.522 199.43 173.11C229.831 212.124 283.98 240.872 287.368 288.018C290.771 335.373 250.069 370.476 215.77 400.502C185.23 427.236 145.006 436.916 104.795 447.841C61.4509 459.616 14.6282 490.124 -26.8001 466.403C-68.7589 442.377 -63.4108 382.378 -84.3804 339.519C-101.326 304.884 -137.639 276.799 -137.698 239.742C-137.757 202.412 -108.957 174.984 -84.6828 148.392Z" fill="#0D5B57"/>
</svg>