<svg width="294" height="354" viewBox="0 0 294 354" fill="none" xmlns="http://www.w3.org/2000/svg">
<path fill-rule="evenodd" clip-rule="evenodd" d="M52.518 -141.401C104.078 -153.455 161.761 -141.004 205.893 -113.522C249.686 -86.2507 277.431 -40.4943 290.578 6.84579C302.58 50.0613 279.46 92.7859 275.54 137.261C271.284 185.528 300.245 242.329 266.554 279.36C232.926 316.322 167.535 298.891 117.124 311.379C68.3429 323.465 23.7467 364.351 -24.8201 351.546C-73.3848 338.741 -93.7568 286.52 -122.647 248.159C-148.548 213.766 -172.995 179.652 -184.768 139.16C-197.765 94.4564 -219.998 42.7831 -193.826 3.34162C-167.411 -36.4657 -100.642 -26.7847 -58.046 -51.8124C-15.843 -76.6093 4.06105 -130.071 52.518 -141.401Z" fill="#580158"/>
</svg>
