<svg width="346" height="323" viewBox="0 0 346 323" fill="none" xmlns="http://www.w3.org/2000/svg">
<path fill-rule="evenodd" clip-rule="evenodd" d="M213.529 0.0793979C247.783 1.51076 273.529 34.0128 304.918 50.9489C348.335 74.375 406.704 69.2122 432.443 118.197C458.818 168.391 452.768 238.991 432.166 293.119C412.564 344.616 366.683 368.989 326.386 396.835C290.861 421.383 254.032 438.747 213.529 444.201C168.398 450.279 120.37 458.04 81.1724 429.855C40.2111 400.402 5.14937 349.005 0.369549 290.929C-4.20483 235.349 34.7665 191.665 57.5944 143.375C74.9706 106.617 89.8257 68.5636 117.516 43.118C145.491 17.4103 178.632 -1.3788 213.529 0.0793979Z" fill="#5A115B"/>
</svg>