
<svg width="342" height="265" viewBox="0 0 342 265" fill="none" xmlns="http://www.w3.org/2000/svg">
<path fill-rule="evenodd" clip-rule="evenodd" d="M243.645 -234.903C297.57 -232.368 328.045 -176.368 371.919 -146.642C412.973 -118.826 473.186 -109.575 493.262 -65.7793C513.318 -22.0238 483.233 26.3905 472.6 73.002C462.77 116.095 463.239 163.33 433.287 197.134C403.15 231.148 355.802 245.413 310.262 256.222C266.102 266.704 220.659 268.373 176.446 258.095C130.793 247.482 82.2691 232.57 54.4634 196.757C27.2185 161.667 39.431 113.569 31.0127 70.7851C22.1319 25.6513 -10.8474 -17.8161 3.61948 -61.6418C18.4043 -106.431 67.4343 -130.612 106.897 -159.098C149.76 -190.038 189.768 -237.435 243.645 -234.903Z" fill="#470147"/>
</svg>
