<svg width="408" height="439" viewBox="0 0 408 439" fill="none" xmlns="http://www.w3.org/2000/svg">
<path fill-rule="evenodd" clip-rule="evenodd" d="M-74.8931 166.941C-48.6129 138.152 -18.1233 115.151 19.1956 101.305C62.3249 85.3031 109.612 62.9653 154.841 81.7043C200.203 100.498 214.411 155.837 244.733 194.749C278.935 238.639 339.853 270.981 343.664 324.02C347.492 377.295 301.703 416.786 263.116 450.564C228.759 480.64 183.507 491.531 138.269 503.821C89.5073 517.068 36.8318 551.39 -9.77508 524.703C-56.9787 497.674 -50.9622 430.176 -74.553 381.959C-93.617 342.995 -134.469 311.399 -134.535 269.71C-134.602 227.713 -102.202 196.857 -74.8931 166.941Z" fill="#0F6D68"/>
</svg>