<svg width="387" height="283" viewBox="0 0 387 283" fill="none" xmlns="http://www.w3.org/2000/svg">
<path fill-rule="evenodd" clip-rule="evenodd" d="M243.645 -216.903C297.57 -214.368 328.045 -158.368 371.919 -128.642C412.973 -100.826 473.186 -91.5755 493.262 -47.7793C513.318 -4.02376 483.233 44.3905 472.6 91.002C462.77 134.095 463.239 181.33 433.287 215.134C403.15 249.148 355.802 263.413 310.262 274.222C266.102 284.704 220.659 286.373 176.446 276.095C130.793 265.482 82.2691 250.57 54.4634 214.757C27.2185 179.667 39.431 131.569 31.0127 88.7851C22.1319 43.6513 -10.8474 0.183865 3.61948 -43.6418C18.4043 -88.4308 67.4343 -112.612 106.897 -141.098C149.76 -172.038 189.768 -219.435 243.645 -216.903Z" fill="#580158"/>
</svg>
