<svg width="309" height="279" viewBox="0 0 309 279" fill="none" xmlns="http://www.w3.org/2000/svg">
<path fill-rule="evenodd" clip-rule="evenodd" d="M189.803 0.0705759C220.252 1.3429 243.137 30.2336 271.038 45.2879C309.631 66.1111 361.515 61.522 384.394 105.064C407.838 149.681 402.461 212.436 384.147 260.55C366.724 306.326 325.941 327.99 290.121 352.742C258.543 374.563 225.806 389.998 189.803 394.846C149.687 400.248 106.996 407.147 72.1533 382.094C35.7432 355.913 4.57722 310.227 0.328488 258.604C-3.73762 209.199 30.9035 170.369 51.195 127.444C66.6405 94.771 79.8451 60.9455 104.458 38.3271C129.325 15.4758 158.784 -1.2256 189.803 0.0705759Z" fill="#4A0F4B"/>
</svg>