<svg width="250" height="323" viewBox="0 0 250 323" fill="none" xmlns="http://www.w3.org/2000/svg">
<path fill-rule="evenodd" clip-rule="evenodd" d="M8.51796 -172.401C60.0782 -184.455 117.761 -172.004 161.893 -144.522C205.686 -117.251 233.431 -71.4943 246.578 -24.1542C258.58 19.0613 235.46 61.7859 231.54 106.261C227.284 154.528 256.245 211.329 222.554 248.36C188.926 285.322 123.535 267.891 73.1244 280.379C24.3429 292.465 -20.2533 333.351 -68.8201 320.546C-117.385 307.741 -137.757 255.52 -166.647 217.159C-192.548 182.766 -216.995 148.652 -228.768 108.16C-241.765 63.4564 -263.998 11.7831 -237.826 -27.6584C-211.411 -67.4657 -144.642 -57.7847 -102.046 -82.8124C-59.843 -107.609 -39.9389 -161.071 8.51796 -172.401Z" fill="#470147"/>
</svg>
